<?xml version="1.0" encoding="UTF-8" standalone="no"?>
<!-- Created with Inkscape (http://www.inkscape.org/) -->

<svg
   width="2400"
   height="1000"
   viewBox="0 0 634.99999 264.58333"
   version="1.1"
   id="svg5"
   xml:space="preserve"
   inkscape:version="1.2.2 (b0a8486, 2022-12-01)"
   sodipodi:docname="logo_text.svg"
   inkscape:export-filename="background.png"
   inkscape:export-xdpi="96"
   inkscape:export-ydpi="96"
   xmlns:inkscape="http://www.inkscape.org/namespaces/inkscape"
   xmlns:sodipodi="http://sodipodi.sourceforge.net/DTD/sodipodi-0.dtd"
   xmlns:xlink="http://www.w3.org/1999/xlink"
   xmlns="http://www.w3.org/2000/svg"
   xmlns:svg="http://www.w3.org/2000/svg"><sodipodi:namedview
     id="namedview7"
     pagecolor="#ffffff"
     bordercolor="#000000"
     borderopacity="0.25"
     inkscape:showpageshadow="false"
     inkscape:pageopacity="0.0"
     inkscape:pagecheckerboard="0"
     inkscape:deskcolor="#d1d1d1"
     inkscape:document-units="mm"
     showgrid="false"
     inkscape:zoom="0.33754294"
     inkscape:cx="1116.8949"
     inkscape:cy="756.94073"
     inkscape:window-width="1440"
     inkscape:window-height="847"
     inkscape:window-x="0"
     inkscape:window-y="25"
     inkscape:window-maximized="0"
     inkscape:current-layer="g1751"
     showborder="false"
     borderlayer="false"
     showguides="true" /><defs
     id="defs2"><linearGradient
       inkscape:collect="always"
       id="linearGradient995"><stop
         style="stop-color:#be0050;stop-opacity:1;"
         offset="0"
         id="stop991" /><stop
         style="stop-color:#5100be;stop-opacity:1;"
         offset="1"
         id="stop993" /></linearGradient><linearGradient
       inkscape:collect="always"
       id="linearGradient989"><stop
         style="stop-color:#be0050;stop-opacity:1;"
         offset="0"
         id="stop985" /><stop
         style="stop-color:#5100be;stop-opacity:1;"
         offset="1"
         id="stop987" /></linearGradient><linearGradient
       inkscape:collect="always"
       id="linearGradient983"><stop
         style="stop-color:#be0050;stop-opacity:1;"
         offset="0"
         id="stop979" /><stop
         style="stop-color:#5100be;stop-opacity:1;"
         offset="1"
         id="stop981" /></linearGradient><linearGradient
       inkscape:collect="always"
       id="linearGradient977"><stop
         style="stop-color:#be0050;stop-opacity:1;"
         offset="0"
         id="stop973" /><stop
         style="stop-color:#5100be;stop-opacity:1;"
         offset="1"
         id="stop975" /></linearGradient><linearGradient
       inkscape:collect="always"
       id="linearGradient971"><stop
         style="stop-color:#be0050;stop-opacity:1;"
         offset="0"
         id="stop967" /><stop
         style="stop-color:#5100be;stop-opacity:1;"
         offset="1"
         id="stop969" /></linearGradient><linearGradient
       inkscape:collect="always"
       id="linearGradient965"><stop
         style="stop-color:#be0050;stop-opacity:1;"
         offset="0"
         id="stop961" /><stop
         style="stop-color:#5100be;stop-opacity:1;"
         offset="1"
         id="stop963" /></linearGradient><rect
       x="360.01878"
       y="493.87191"
       width="1855.4814"
       height="392.32816"
       id="rect2225" /><linearGradient
       inkscape:collect="always"
       id="linearGradient39421"><stop
         style="stop-color:#8265ef;stop-opacity:1;"
         offset="0"
         id="stop39417" /><stop
         style="stop-color:#4560e3;stop-opacity:1;"
         offset="1"
         id="stop39419" /></linearGradient><linearGradient
       inkscape:collect="always"
       id="linearGradient31885"><stop
         style="stop-color:#5503a1;stop-opacity:0.66666675;"
         offset="0"
         id="stop31881" /><stop
         style="stop-color:#9751fa;stop-opacity:0;"
         offset="1"
         id="stop31883" /></linearGradient><linearGradient
       inkscape:collect="always"
       id="Degrade_T"><stop
         style="stop-color:#be0050;stop-opacity:1;"
         offset="0"
         id="stop31832" /><stop
         style="stop-color:#5100be;stop-opacity:1;"
         offset="1"
         id="stop31834" /></linearGradient><linearGradient
       inkscape:collect="always"
       id="linearGradient25962"><stop
         style="stop-color:#1e48de;stop-opacity:1;"
         offset="0"
         id="stop25958" /><stop
         style="stop-color:#3554fc;stop-opacity:0;"
         offset="1"
         id="stop25960" /></linearGradient><linearGradient
       id="linearGradient25948"
       inkscape:swatch="solid"><stop
         style="stop-color:#000000;stop-opacity:1;"
         offset="0"
         id="stop25946" /></linearGradient><linearGradient
       inkscape:collect="always"
       id="linearGradient25159"><stop
         style="stop-color:#bf57e4;stop-opacity:1;"
         offset="0"
         id="stop25155" /><stop
         style="stop-color:#d72983;stop-opacity:1;"
         offset="1"
         id="stop25157" /></linearGradient><linearGradient
       inkscape:collect="always"
       id="linearGradient23300"><stop
         style="stop-color:#f9b023;stop-opacity:0;"
         offset="0"
         id="stop23296" /><stop
         style="stop-color:#1742c3;stop-opacity:0.625;"
         offset="1"
         id="stop23298" /></linearGradient><linearGradient
       inkscape:collect="always"
       id="linearGradient20470"><stop
         style="stop-color:#90d8fd;stop-opacity:1;"
         offset="0"
         id="stop20466" /><stop
         style="stop-color:#5fb9fd;stop-opacity:1;"
         offset="1"
         id="stop20468" /></linearGradient><linearGradient
       inkscape:collect="always"
       id="linearGradient16681"><stop
         style="stop-color:#ee59d8;stop-opacity:1;"
         offset="0"
         id="stop16677" /><stop
         style="stop-color:#bf57e4;stop-opacity:1;"
         offset="1"
         id="stop16679" /></linearGradient><linearGradient
       inkscape:collect="always"
       id="linearGradient13904"><stop
         style="stop-color:#f67a7a;stop-opacity:1;"
         offset="0"
         id="stop13900" /><stop
         style="stop-color:#de2e83;stop-opacity:1;"
         offset="1"
         id="stop13902" /></linearGradient><linearGradient
       inkscape:collect="always"
       xlink:href="#linearGradient13904"
       id="linearGradient13906"
       x1="120.68904"
       y1="80.386497"
       x2="120.37148"
       y2="123.86201"
       gradientUnits="userSpaceOnUse" /><radialGradient
       inkscape:collect="always"
       xlink:href="#linearGradient16681"
       id="radialGradient18065"
       cx="99.791328"
       cy="113.01591"
       fx="99.791328"
       fy="113.01591"
       r="45.717201"
       gradientTransform="matrix(0.6950447,-0.68251895,1.235738,1.2584166,-101.61133,9.4517556)"
       gradientUnits="userSpaceOnUse" /><clipPath
       clipPathUnits="userSpaceOnUse"
       id="clipPath20450"><rect
         style="display:inline;fill:#f9b023;fill-opacity:0.484305;stroke-width:0.361484"
         id="rect20452"
         width="113.0827"
         height="118.61511"
         x="41.382511"
         y="78.560379"
         ry="31.139618" /></clipPath><clipPath
       clipPathUnits="userSpaceOnUse"
       id="clipPath20454"><rect
         style="display:inline;fill:#f9b023;fill-opacity:0.484305;stroke-width:0.361484"
         id="rect20456"
         width="113.0827"
         height="118.61511"
         x="41.382511"
         y="78.560379"
         ry="31.139618" /></clipPath><clipPath
       clipPathUnits="userSpaceOnUse"
       id="clipPath20458"><rect
         style="display:inline;fill:#f9b023;fill-opacity:0.484305;stroke-width:0.361484"
         id="rect20460"
         width="113.0827"
         height="118.61511"
         x="41.382511"
         y="78.560379"
         ry="31.139618" /></clipPath><clipPath
       clipPathUnits="userSpaceOnUse"
       id="clipPath20462"><rect
         style="display:inline;fill:#f9b023;fill-opacity:0.484305;stroke-width:0.361484"
         id="rect20464"
         width="113.0827"
         height="118.61511"
         x="41.382511"
         y="78.560379"
         ry="31.139618" /></clipPath><linearGradient
       inkscape:collect="always"
       xlink:href="#linearGradient20470"
       id="linearGradient20472"
       x1="54.66032"
       y1="87.412262"
       x2="61.741821"
       y2="99.694229"
       gradientUnits="userSpaceOnUse" /><clipPath
       clipPathUnits="userSpaceOnUse"
       id="clipPath23289"><rect
         style="display:inline;fill:#f9b023;fill-opacity:0.484305;stroke-width:0.361484"
         id="rect23291"
         width="113.0827"
         height="118.61511"
         x="41.382511"
         y="78.560379"
         ry="31.139618" /></clipPath><linearGradient
       inkscape:collect="always"
       xlink:href="#linearGradient25159"
       id="linearGradient25161"
       x1="85.309929"
       y1="180.02499"
       x2="101.57525"
       y2="181.24213"
       gradientUnits="userSpaceOnUse" /><clipPath
       clipPathUnits="userSpaceOnUse"
       id="clipPath25926"><rect
         style="display:inline;fill:url(#linearGradient25930);fill-opacity:1;stroke-width:0.361484"
         id="rect25928"
         width="113.0827"
         height="118.61511"
         x="41.382504"
         y="78.55703"
         ry="31.139618" /></clipPath><linearGradient
       inkscape:collect="always"
       xlink:href="#linearGradient23300"
       id="linearGradient25930"
       gradientUnits="userSpaceOnUse"
       x1="121.27067"
       y1="107.99287"
       x2="78.560387"
       y2="176.81618" /><linearGradient
       inkscape:collect="always"
       xlink:href="#linearGradient965"
       id="linearGradient31838"
       x1="98.034508"
       y1="124.36883"
       x2="70.593697"
       y2="130.56514"
       gradientUnits="userSpaceOnUse" /><radialGradient
       inkscape:collect="always"
       xlink:href="#linearGradient25962"
       id="radialGradient34030"
       cx="69.913376"
       cy="197.03429"
       fx="69.913376"
       fy="197.03429"
       r="56.541351"
       gradientTransform="matrix(1.7918903,1.5866585,-0.58683294,0.6627389,54.588671,-57.468528)"
       gradientUnits="userSpaceOnUse" /><radialGradient
       inkscape:collect="always"
       xlink:href="#linearGradient31885"
       id="radialGradient34032"
       cx="130.50623"
       cy="193.22249"
       fx="130.50623"
       fy="193.22249"
       r="56.541351"
       gradientTransform="matrix(0.99993013,0.01182056,-0.00930581,0.78720124,5.3517904,39.350279)"
       gradientUnits="userSpaceOnUse" /><linearGradient
       inkscape:collect="always"
       xlink:href="#linearGradient39421"
       id="linearGradient39423"
       x1="53.203373"
       y1="134.8862"
       x2="54.142258"
       y2="169.31192"
       gradientUnits="userSpaceOnUse" /><radialGradient
       inkscape:collect="always"
       xlink:href="#linearGradient31885"
       id="radialGradient34032-7"
       cx="107.93889"
       cy="161.52409"
       fx="107.93889"
       fy="161.52409"
       r="56.541351"
       gradientTransform="matrix(0.82747852,-0.56149737,0.56603661,0.83416797,-83.076574,105.17505)"
       gradientUnits="userSpaceOnUse" /><filter
       style="color-interpolation-filters:sRGB;"
       inkscape:label="Drop Shadow"
       id="filter911"
       x="0"
       y="0"
       width="1.0064357"
       height="1.0363965"><feFlood
         flood-opacity="0.94902"
         flood-color="rgb(0,0,0)"
         result="flood"
         id="feFlood901" /><feComposite
         in="flood"
         in2="SourceGraphic"
         operator="in"
         result="composite1"
         id="feComposite903" /><feGaussianBlur
         in="composite1"
         stdDeviation="0"
         result="blur"
         id="feGaussianBlur905" /><feOffset
         dx="2.9595"
         dy="2.9595"
         result="offset"
         id="feOffset907" /><feComposite
         in="offset"
         in2="offset"
         operator="atop"
         result="composite2"
         id="feComposite909" /></filter><linearGradient
       inkscape:collect="always"
       xlink:href="#Degrade_T"
       id="linearGradient1766"
       x1="473.7663"
       y1="782.74469"
       x2="608.78644"
       y2="706.34589"
       gradientUnits="userSpaceOnUse" /><linearGradient
       inkscape:collect="always"
       xlink:href="#linearGradient995"
       id="linearGradient1774"
       x1="729.64679"
       y1="778.43774"
       x2="933.68347"
       y2="662.97766"
       gradientUnits="userSpaceOnUse" /><linearGradient
       inkscape:collect="always"
       xlink:href="#linearGradient989"
       id="linearGradient1782"
       x1="1080.1027"
       y1="800.2923"
       x2="1277.0647"
       y2="666.7915"
       gradientUnits="userSpaceOnUse" /><linearGradient
       inkscape:collect="always"
       xlink:href="#linearGradient983"
       id="linearGradient1886"
       x1="1428.1506"
       y1="789.72778"
       x2="1573.2892"
       y2="674.26764"
       gradientUnits="userSpaceOnUse" /><linearGradient
       inkscape:collect="always"
       xlink:href="#linearGradient977"
       id="linearGradient1894"
       x1="1712.6361"
       y1="797.71777"
       x2="1871.3617"
       y2="649.78448"
       gradientUnits="userSpaceOnUse" /><linearGradient
       inkscape:collect="always"
       xlink:href="#linearGradient971"
       id="linearGradient1902"
       x1="2034.481"
       y1="795.08411"
       x2="2140.3967"
       y2="654.36713"
       gradientUnits="userSpaceOnUse" /></defs><g
     id="layer4"
     inkscape:label="Logo Troover"
     style="display:inline"
     inkscape:export-filename="llogo.png"
     inkscape:export-xdpi="96"
     inkscape:export-ydpi="96"
     transform="matrix(2.2153214,0,0,2.2153214,-73.834746,-172.8986)"><g
       inkscape:groupmode="layer"
       id="layer2"
       inkscape:label="Square"
       style="display:none"
       transform="matrix(1.064702,0,0,1,-10.006463,0)"><path
         style="display:inline;fill:url(#linearGradient13906);fill-opacity:1;stroke-width:0.366977"
         d="m 97.643835,88.724445 9.545305,-25.19336 51.95153,25.19336 5.47682,44.753425 -4.22497,53.04689 -16.11749,13.45732 -28.79242,2.97313 -25.349841,-6.4157 -12.51844,-37.86828 8.293468,-32.8609 z"
         id="path10102"
         clip-path="url(#clipPath20462)" /><path
         style="display:inline;fill:#b80000;fill-opacity:0.139344;stroke-width:0.366977"
         d="m 106.00119,105.22665 c -3.18769,-4.46119 -0.13276,-23.689471 3.8727,-27.330159 4.78786,-0.158996 0.0445,0.0051 4.86853,-0.221297 0.52083,3.998622 -2.90183,24.463676 -3.54075,28.547296 -5.09862,-0.96288 -0.0568,-0.0163 -5.20048,-0.99584 z"
         id="path16134"
         sodipodi:nodetypes="ccccc"
         clip-path="url(#clipPath20458)" /><path
         style="display:inline;fill:url(#radialGradient18065);fill-opacity:1;stroke-width:0.366977"
         d="m 111.72921,78.472648 c -0.30715,8.534384 -2.51191,18.607214 -5.63543,28.325292 -3.12352,9.71808 -10.848324,20.15775 -13.457322,29.18362 -2.608998,9.02587 -3.261981,16.30956 -2.503689,23.62855 0.758292,7.31899 3.941508,12.36071 6.259222,19.40359 2.317714,7.04288 15.168109,11.34276 7.667549,22.84615 -7.500564,11.50339 -40.601405,17.2184 -58.054272,5.32034 C 28.552401,195.28213 29.490336,165.80269 26.914647,141.45838 24.338958,117.11407 14.338778,80.608018 32.547946,63.218123 50.757114,45.828228 92.54865,52.913176 105.1549,61.340356 c 12.60625,8.42718 6.88147,8.597908 6.57431,17.132292 z"
         id="path6946"
         sodipodi:nodetypes="zzzzzzzzzzz"
         clip-path="url(#clipPath20454)" /><path
         style="display:inline;fill:url(#linearGradient25161);fill-opacity:1;stroke-width:0.366977"
         d="m 106.99703,197.06484 c 5.25644,-5.11826 -11.286143,-19.69541 -11.286143,-19.69541 l -10.400951,-3.6514 -20.691255,20.35931 4.979178,2.87686 c 0,0 32.364031,8.76965 37.399171,0.11064 z"
         id="path25153"
         sodipodi:nodetypes="cccccc"
         clip-path="url(#clipPath25926)" /><rect
         style="display:inline;fill:url(#radialGradient34030);fill-opacity:1;fill-rule:nonzero;stroke-width:0.361484"
         id="rect20448-5"
         width="113.0827"
         height="118.61511"
         x="41.382504"
         y="78.55703"
         ry="31.139618" /><rect
         style="display:inline;fill:url(#radialGradient34032-7);fill-opacity:1;fill-rule:nonzero;stroke-width:0.361484"
         id="rect20448-5-4-9"
         width="113.0827"
         height="118.61511"
         x="41.571926"
         y="78.551765"
         ry="31.139618" /><rect
         style="display:inline;fill:url(#radialGradient34032);fill-opacity:1;fill-rule:nonzero;stroke-width:0.361484"
         id="rect20448-5-4"
         width="113.0827"
         height="118.61511"
         x="41.337204"
         y="78.473534"
         ry="31.139618" /><path
         style="display:inline;fill:url(#linearGradient39423);fill-opacity:1;stroke-width:0.366977"
         d="m 41.64252,130.69535 c 5.022156,9.06527 13.032968,22.06001 28.671775,38.28436 8.641387,9.68065 18.319608,18.65165 22.109549,28.01361 1.168892,6.78003 6.129961,-0.007 -1.418294,5.07026 -7.548256,5.07753 -35.801463,8.88872 -49.127901,-2.54491 C 28.55121,188.08504 27.591622,156.48001 30.480862,144.5264 c 2.88924,-11.95361 0.258733,-14.01013 11.161658,-13.83105 z"
         id="path18121"
         sodipodi:nodetypes="ccccccc"
         clip-path="url(#clipPath23289)" /><path
         style="display:inline;fill:url(#linearGradient20472);fill-opacity:1;stroke-width:0.366977"
         d="M 41.457554,116.00095 C 46.489315,113.6949 75.409438,101.20411 81.156956,78.455124 86.904473,55.706133 77.931642,72.103439 69.937005,72.186413 61.942368,72.269388 44.319911,80.010934 39.423308,89.086308 34.526705,98.161682 36.425793,118.307 41.457554,116.00095 Z"
         id="path5648"
         sodipodi:nodetypes="zzzzz"
         clip-path="url(#clipPath20450)" /></g><g
       id="layer3"
       inkscape:label="Logo"
       style="display:inline"
       inkscape:groupmode="layer"
       transform="translate(-20.820579,1.3289731)"><path
         style="display:inline;fill:url(#linearGradient31838);fill-opacity:1;stroke-width:0.366977"
         d="m 104.61227,181.27589 c -12.603884,-13.78814 -4.99049,-40.00604 -0.20623,-55.3021 23.6338,-1.94165 38.41584,0.85175 34.21491,-24.91462 -11.81801,1.11951 -25.63057,7.77731 -38.635334,9.5312 -25.1666,3.39411 -44.230807,9.44477 -37.936637,32.02094 2.625508,-11.23346 12.323856,-11.54621 28.226467,-14.68383 -10.508054,20.9943 -1.720153,55.5269 14.336824,53.34841 z"
         id="path2362-9"
         sodipodi:nodetypes="cccsccc"
         inkscape:label="Typo T Shadow" /><path
         style="fill:#ffc50a;fill-opacity:1;stroke-width:0.366977"
         d="m 101.29863,181.1038 c -13.464525,-12.77102 -3.846035,-43.57133 2.2683,-60.27571 23.6338,-1.94165 35.44271,-1.73018 35.07555,-19.75076 -11.81801,1.11951 -26.49121,2.61345 -39.495974,4.36734 -25.166601,3.39411 -45.247927,8.74061 -38.953761,31.31678 6.381046,-11.62466 13.575701,-11.23325 29.321831,-14.60559 -6.283074,21.54198 -8.537778,64.29822 11.784054,58.94794 z"
         id="path2362"
         sodipodi:nodetypes="cccsccc"
         inkscape:label="Typo T" /></g><g
       id="g2741"
       inkscape:label="Light"
       style="display:none"
       transform="translate(-20.820579,1.3289727)"><path
         style="fill:#ff230a;fill-rule:evenodd;stroke:#000000;stroke-width:1.56996;stroke-linecap:round;stroke-opacity:1;stop-color:#000000"
         d="M 71.297966,130.12954 413.62065,14.98452 Z"
         id="path2720" /><path
         style="fill:#ff230a;fill-rule:evenodd;stroke:#000000;stroke-width:0.139934;stroke-linecap:round;stroke-opacity:1;stop-color:#000000"
         d="M 413.11524,14.663698 108.87795,170.22979 Z"
         id="path2722" /><path
         style="fill:#ff230a;fill-rule:evenodd;stroke:#000000;stroke-width:0.139934;stroke-linecap:round;stroke-opacity:1;stop-color:#000000"
         d="M 411.82245,15.95649 136.0266,172.38444 Z"
         id="path2724" /><path
         style="fill:#ff230a;fill-rule:evenodd;stroke:#000000;stroke-width:0.139934;stroke-linecap:round;stroke-opacity:1;stop-color:#000000"
         d="M 411.39151,16.387421 178.68878,175.83189 Z"
         id="path2726" /><path
         style="fill:#ff230a;fill-rule:evenodd;stroke:#000000;stroke-width:0.139934;stroke-linecap:round;stroke-opacity:1;stop-color:#000000"
         d="M 411.82245,16.818352 221.78187,174.10817 Z"
         id="path2728" /><path
         style="fill:#ff230a;fill-rule:evenodd;stroke:#000000;stroke-width:0.139934;stroke-linecap:round;stroke-opacity:1;stop-color:#000000"
         d="M 412.25337,16.818352 255.39449,176.26282 Z"
         id="path2730" /><path
         style="fill:#ff230a;fill-rule:evenodd;stroke:#000000;stroke-width:0.139934;stroke-linecap:round;stroke-opacity:1;stop-color:#000000"
         d="M 412.6843,14.663698 293.74735,177.12468 Z"
         id="path2732" /></g></g><text
     xml:space="preserve"
     style="font-weight:bold;font-size:158.75px;font-family:sans-serif;-inkscape-font-specification:'sans-serif Bold';text-align:center;text-anchor:middle;display:none;fill:#ffc50a;fill-opacity:1;fill-rule:evenodd;stroke-width:0.309999;stroke-linecap:round;filter:url(#filter911);stop-color:#000000"
     x="346.11942"
     y="231.22052"
     id="text2231-8"><tspan
       id="tspan2229-1"
       style="font-style:normal;font-variant:normal;font-weight:normal;font-stretch:normal;font-size:158.75px;font-family:'Simply Rounded';-inkscape-font-specification:'Simply Rounded';stroke-width:0.31"
       x="346.11942"
       y="231.22052"
       sodipodi:role="line">roover</tspan></text><g
     id="g1751"><path
       style="fill:url(#linearGradient1766);fill-rule:evenodd;stroke-width:3.07667;stroke-linecap:round;stop-color:#000000;fill-opacity:1"
       d="m 487.59146,882.5304 c -5.51157,-2.0128 -12.42712,-5.83711 -15.3679,-8.49849 -12.631,-11.43088 -12.68695,-12.01396 -12.68695,-132.20852 0,-122.86979 -0.0938,-122.01863 14.73292,-133.68134 18.71295,-14.7196 41.2497,-12.28774 61.47851,6.63395 l 12.56942,11.75722 12.72341,-12.67221 c 15.01698,-14.95654 31.86934,-21.4304 61.303,-23.54965 17.74031,-1.27732 20.19104,-0.86554 24.69956,4.15014 4.88694,5.43668 4.89342,6.11066 0.2745,28.54192 -4.62834,22.47702 -10.08093,37.24257 -13.88132,37.59044 -1.0461,0.0958 -9.58284,0.46291 -18.97051,0.81589 -19.439,0.73092 -33.57554,6.90132 -50.18087,21.90323 -18.10016,16.35241 -18.08002,16.24935 -18.2084,93.17349 -0.12027,72.05885 -1.48624,82.71953 -12.10201,94.44985 -11.14183,12.31156 -30.89703,17.24964 -46.38336,11.59408 z"
       id="path1733"
       transform="scale(0.26458333)" /><path
       style="fill:url(#linearGradient1774);fill-rule:evenodd;stroke-width:3.07667;stroke-linecap:round;stop-color:#000000;fill-opacity:1"
       d="M 798.28074,888.93198 C 745.09811,882.11094 696.56819,843.4218 677.59885,792.72171 660.94217,748.20272 667.10569,691.84539 692.69951,654.64605 c 18.89944,-27.46939 49.56821,-50.79267 79.13259,-60.17951 23.82311,-7.56396 70.91142,-9.51623 96.77411,-4.01224 52.73233,11.22227 97.46529,52.17259 113.71855,104.10247 6.23576,19.92342 7.35994,59.25838 2.28902,80.09066 -12.30059,50.533 -57.36784,97.44826 -105.70369,110.03814 -19.03958,4.95919 -58.76119,7.05116 -80.62935,4.24641 z m 59.76368,-75.07229 c 16.30912,-8.12717 27.98906,-20.86283 37.05601,-40.4054 9.2137,-19.85887 9.46788,-50.15579 0.58926,-70.23669 -8.65749,-19.58077 -29.65354,-38.64922 -48.63072,-44.16603 -60.49038,-17.58503 -112.70578,52.22336 -85.87721,114.81189 16.9894,39.63465 61.06582,57.83455 96.86266,39.99623 z"
       id="path1735"
       transform="scale(0.26458333)" /><path
       style="fill:url(#linearGradient1782);fill-rule:evenodd;stroke-width:3.07667;stroke-linecap:round;stop-color:#000000;fill-opacity:1"
       d="m 1140.9638,888.76269 c -63.151,-8.30653 -116.7762,-61.25705 -127.413,-125.80991 -13.0442,-79.16303 38.9771,-155.74638 116.9093,-172.10845 23.3475,-4.90187 60.5194,-4.94605 83.3921,-0.0991 52.0232,11.0242 100.128,56.92116 113.3311,108.12946 5.2773,20.46854 5.3481,58.29073 0.1465,78.26133 -11.822,45.38756 -51.1937,88.87669 -94.1217,103.96464 -26.3319,9.25494 -59.3093,11.99409 -92.2443,7.66203 z m 61.2217,-74.97532 c 31.4449,-15.66963 49.8437,-55.72756 42.4331,-92.38557 -6.0188,-29.77335 -27.5492,-54.78761 -53.7006,-62.39006 -62.3041,-18.11229 -114.9026,55.52056 -84.3169,118.03553 7.9826,16.31585 28.2565,36.02192 41.3806,40.22163 16.8411,5.38918 39.2971,3.94682 54.2038,-3.48153 z"
       id="path1737"
       transform="scale(0.26458333)" /><path
       style="fill:url(#linearGradient1886);fill-rule:evenodd;stroke-width:3.07667;stroke-linecap:round;stop-color:#000000;fill-opacity:1"
       d="m 1463.9523,883.9473 c -19.0846,-5.01812 -42.0767,-22.31038 -50.1714,-37.73389 -5.6425,-10.75099 -66.4836,-188.22145 -68.2996,-199.22651 -2.0507,-12.42655 6.0882,-31.05011 16.9492,-38.78382 17.2674,-12.29552 48.9614,-9.15506 63.4704,6.28908 6.3146,6.72152 25.7996,68.85705 45.923,146.44329 5.5359,21.34357 11.216,38.4229 12.6225,37.95406 1.4065,-0.46883 5.9692,-13.20509 10.1393,-28.30279 23.6731,-85.70736 42.7471,-146.35746 48.4058,-153.91674 8.0507,-10.7548 26.2597,-17.83116 40.8482,-15.87442 20.1585,2.70382 36.3551,20.60601 36.3551,40.18346 0,13.35322 -64.9073,195.6546 -75.1985,211.20562 -6.5634,9.9181 -22.6545,22.57943 -36.0218,28.34391 -9.6599,4.16577 -34.8938,6.0819 -45.0222,3.41875 z"
       id="path1739"
       transform="scale(0.26458333)" /><path
       style="fill:url(#linearGradient1894);fill-rule:evenodd;stroke-width:3.07667;stroke-linecap:round;stop-color:#000000;fill-opacity:1"
       d="m 1762.9163,882.36835 c -29.3521,-5.32671 -51.3694,-17.47969 -76.0184,-41.96023 -33.231,-33.0039 -45.2058,-64.37258 -42.4296,-111.14687 3.5653,-60.06986 41.3238,-108.04661 100.91,-128.2185 17.9577,-6.07929 24.8691,-6.97302 54.6923,-7.07239 23.9833,-0.0799 39.1256,1.2052 50.909,4.32057 62.734,16.58605 110.5853,76.74366 110.5853,139.02548 0,8.19431 -1.8142,12.0982 -8.9282,19.21215 l -8.9281,8.92814 h -109.2384 c -60.0812,0 -109.2385,0.95032 -109.2385,2.11182 0,4.61073 15.387,25.9982 23.8484,33.14861 20.3074,17.16099 26.1813,18.34134 98.7086,19.83533 65.6326,1.35197 66.1479,1.40695 72.9269,7.78171 18.3226,17.22983 10.3498,48.48642 -14.1001,55.27843 -13.6541,3.79298 -121.0673,2.86294 -143.6992,-1.24425 z m 114.619,-173.79478 c 0,-0.9563 -2.8956,-6.67972 -6.4347,-12.7187 -7.4124,-12.64829 -19.8564,-22.86917 -37.5933,-30.87717 -17.1073,-7.72379 -47.0092,-7.78403 -63.9563,-0.12886 -19.5012,8.80888 -41.6933,31.5406 -41.6933,42.70714 0,1.86001 24.3364,2.75633 74.8388,2.75633 41.1613,0 74.8388,-0.78243 74.8388,-1.73874 z"
       id="path1741"
       transform="scale(0.26458333)" /><path
       style="fill:url(#linearGradient1902);fill-rule:evenodd;stroke-width:3.07667;stroke-linecap:round;stop-color:#000000;fill-opacity:1"
       d="m 2029.0086,882.5304 c -13.1301,-4.79502 -19.8499,-11.02179 -25.7422,-23.85342 -4.4225,-9.63086 -4.8269,-19.23194 -4.8663,-115.54063 -0.025,-61.0262 1.0403,-108.93668 2.5426,-114.34415 3.4286,-12.3419 17.0684,-25.00159 30.8656,-28.64775 16.1091,-4.25712 29.9429,0.2136 45.4002,14.67211 l 12.6128,11.79779 10.9556,-11.88546 c 12.778,-13.86251 30.6038,-21.54073 56.0652,-24.14932 34.4193,-3.52636 38.6312,1.55215 30.5839,36.87676 -3.0677,13.46622 -6.9886,26.40387 -8.713,28.75033 -2.2507,3.06254 -8.3218,4.50634 -21.5168,5.11702 -13.3463,0.61767 -22.007,2.70396 -31.6165,7.61616 -14.74,7.53474 -34.4458,27.30158 -36.5087,36.62189 -0.7382,3.33495 -1.6645,38.05731 -2.0585,77.1608 l -0.7163,71.09726 -7.2101,10.88962 c -11.6074,17.53109 -31.4934,24.60787 -50.0775,17.82099 z"
       id="path1743"
       transform="scale(0.26458333)" /></g><text
     xml:space="preserve"
     style="font-weight:bold;font-size:158.75px;font-family:sans-serif;-inkscape-font-specification:'sans-serif Bold';text-align:center;text-anchor:middle;display:none;opacity:1;fill:#ffc50a;fill-opacity:1;fill-rule:evenodd;stroke-width:0.309999;stroke-linecap:round;stop-color:#000000"
     x="346.11981"
     y="231.2204"
     id="text2231"><tspan
       id="tspan2229"
       style="font-style:normal;font-variant:normal;font-weight:normal;font-stretch:normal;font-size:158.75px;font-family:'Simply Rounded';-inkscape-font-specification:'Simply Rounded';stroke-width:0.31"
       x="346.11981"
       y="231.2204"
       sodipodi:role="line">roover</tspan></text></svg>
